<svg xmlns="http://www.w3.org/2000/svg" xmlns:xlink="http://www.w3.org/1999/xlink" zoomAndPan="magnify" preserveAspectRatio="xMidYMid meet" version="1.0" viewBox="373.4 609.54 745.94 280.06"><defs><g/><clipPath id="9f87536169"><path d="M 373.160156 681 L 460 681 L 460 860 L 373.160156 860 Z M 373.160156 681 " clip-rule="nonzero"/></clipPath><clipPath id="0987062311"><path d="M 558 609.375 L 644.660156 609.375 L 644.660156 861 L 558 861 Z M 558 609.375 " clip-rule="nonzero"/></clipPath></defs><g clip-path="url(#9f87536169)"><path fill="#0171de" d="M 445.316406 721.667969 C 443.640625 720.269531 391.085938 685.648438 385.902344 682.898438 C 379.398438 679.449219 373.851562 683.175781 373.414062 690.753906 C 373.308594 692.523438 373.871094 777.089844 373.910156 782.792969 C 373.203125 793.933594 376.542969 803.597656 384.414062 811.613281 C 388.226562 815.527344 458.40625 859.675781 458.472656 859.535156 C 459.632812 858.488281 460.058594 765.554688 459.277344 760.332031 C 461.289062 745.035156 457.496094 731.824219 445.316406 721.667969 Z M 445.316406 721.667969 " fill-opacity="1" fill-rule="nonzero"/></g><path fill="#013186" d="M 551.636719 855.773438 C 551.738281 841.257812 551.957031 730.164062 551.898438 729.046875 C 551.398438 716.460938 546.28125 706.039062 535.851562 699.082031 C 517.878906 687.097656 478.308594 662.46875 476.988281 661.953125 C 475.472656 661.273438 474.023438 660.984375 472.6875 661.046875 C 471.472656 661.0625 470.402344 661.371094 469.492188 661.96875 C 467.101562 663.367188 465.5 666.246094 465.273438 670.167969 C 465.1875 671.640625 465.492188 853.902344 465.414062 860.804688 C 465.382812 863.585938 465.96875 865.238281 468.75 866.871094 C 479.4375 873.148438 489.929688 879.785156 500.265625 886.636719 C 506.328125 890.652344 511.839844 890.542969 517.808594 886.613281 C 526.722656 880.746094 535.582031 874.726562 544.921875 869.613281 C 550.945312 866.3125 553.386719 862.332031 551.636719 855.773438 Z M 551.636719 855.773438 " fill-opacity="1" fill-rule="nonzero"/><g clip-path="url(#0987062311)"><path fill="#0171de" d="M 644.285156 684.160156 C 644.433594 681.828125 644.449219 679.539062 644.289062 677.316406 C 644.289062 677.160156 644.289062 677.003906 644.289062 676.847656 C 643.464844 662.925781 636.847656 652.378906 625.363281 644.796875 C 612.667969 636.417969 600.066406 627.875 587.050781 620.015625 C 581.730469 616.804688 576.597656 613.128906 570.644531 610.894531 C 570.613281 610.875 570.5625 610.847656 570.53125 610.828125 C 568.71875 609.867188 566.984375 609.480469 565.410156 609.558594 C 562.875 609.398438 561.097656 610.316406 560.03125 612.527344 C 558.90625 614.074219 558.183594 616.15625 558.039062 618.679688 C 558 619.363281 559.003906 844.113281 558.773438 859.117188 C 560 860.992188 561.265625 859.757812 562.363281 859.050781 C 579.304688 848.144531 596.230469 837.199219 613.15625 826.261719 C 629.4375 818.203125 642.539062 807.394531 644.167969 787.757812 C 644.828125 779.796875 644.285156 692.3125 644.285156 684.160156 Z M 644.285156 684.160156 " fill-opacity="1" fill-rule="nonzero"/></g><g fill="#013186" fill-opacity="1"><g transform="translate(696.651189, 810.37491)"><g><path d="M 14.921875 0 L 14.921875 -124.390625 L 96.671875 -124.390625 L 96.671875 -100.578125 L 43 -100.578125 L 43 -74.8125 L 91.875 -74.8125 L 91.875 -51.171875 L 43 -51.171875 L 43 -23.984375 L 98.625 -23.984375 L 98.625 0 Z M 14.921875 0 "/></g></g></g><g fill="#013186" fill-opacity="1"><g transform="translate(804.339283, 810.37491)"><g><path d="M 13.5 0 L 13.5 -93.296875 L 33.578125 -93.296875 L 37.140625 -80.859375 C 40.222656 -85.242188 44.015625 -88.410156 48.515625 -90.359375 C 53.015625 -92.316406 58.703125 -93.296875 65.578125 -93.296875 L 75.703125 -93.296875 L 75.703125 -68.765625 L 65.390625 -68.765625 C 57.691406 -68.765625 51.617188 -66.691406 47.171875 -62.546875 C 42.734375 -58.398438 40.515625 -51.296875 40.515625 -41.234375 L 40.515625 0 Z M 13.5 0 "/></g></g></g><g fill="#013186" fill-opacity="1"><g transform="translate(886.082719, 810.37491)"><g><path d="M 70.015625 2.484375 C 63.265625 2.484375 57.046875 1.332031 51.359375 -0.96875 C 45.671875 -3.28125 40.753906 -6.507812 36.609375 -10.65625 L 33.578125 0 L 13.5 0 L 13.5 -131.5 L 40.515625 -131.5 L 40.515625 -86.015625 C 44.421875 -89.085938 48.863281 -91.484375 53.84375 -93.203125 C 58.820312 -94.921875 64.210938 -95.78125 70.015625 -95.78125 C 79.367188 -95.78125 87.597656 -93.675781 94.703125 -89.46875 C 101.816406 -85.269531 107.414062 -79.492188 111.5 -72.140625 C 115.59375 -64.796875 117.640625 -56.328125 117.640625 -46.734375 C 117.640625 -37.140625 115.59375 -28.640625 111.5 -21.234375 C 107.414062 -13.828125 101.816406 -8.019531 94.703125 -3.8125 C 87.597656 0.382812 79.367188 2.484375 70.015625 2.484375 Z M 39.453125 -46.734375 C 39.453125 -39.148438 41.847656 -32.929688 46.640625 -28.078125 C 51.441406 -23.222656 57.632812 -20.796875 65.21875 -20.796875 C 72.914062 -20.796875 79.132812 -23.222656 83.875 -28.078125 C 88.613281 -32.929688 90.984375 -39.148438 90.984375 -46.734375 C 90.984375 -54.316406 88.613281 -60.535156 83.875 -65.390625 C 79.132812 -70.253906 72.914062 -72.6875 65.21875 -72.6875 C 57.632812 -72.6875 51.441406 -70.253906 46.640625 -65.390625 C 41.847656 -60.535156 39.453125 -54.316406 39.453125 -46.734375 Z M 39.453125 -46.734375 "/></g></g></g><g fill="#013186" fill-opacity="1"><g transform="translate(1010.652597, 810.37491)"><g><path d="M 57.578125 2.484375 C 47.628906 2.484375 38.832031 0.410156 31.1875 -3.734375 C 23.539062 -7.878906 17.585938 -13.65625 13.328125 -21.0625 C 9.066406 -28.46875 6.9375 -37.023438 6.9375 -46.734375 C 6.9375 -56.453125 9.097656 -64.984375 13.421875 -72.328125 C 17.742188 -79.671875 23.722656 -85.414062 31.359375 -89.5625 C 39.003906 -93.707031 47.863281 -95.78125 57.9375 -95.78125 C 68.59375 -95.78125 77.800781 -93.410156 85.5625 -88.671875 C 93.320312 -83.929688 99.242188 -77.296875 103.328125 -68.765625 C 107.421875 -60.234375 109.171875 -50.285156 108.578125 -38.921875 L 33.765625 -38.921875 C 35.066406 -32.523438 37.910156 -27.632812 42.296875 -24.25 C 46.679688 -20.875 51.953125 -19.1875 58.109375 -19.1875 C 62.609375 -19.1875 66.722656 -20.046875 70.453125 -21.765625 C 74.191406 -23.484375 77.1875 -25.882812 79.4375 -28.96875 L 106.796875 -28.96875 C 102.765625 -19.132812 96.425781 -11.429688 87.78125 -5.859375 C 79.132812 -0.296875 69.066406 2.484375 57.578125 2.484375 Z M 33.9375 -55.96875 L 82.453125 -55.96875 C 80.910156 -61.65625 78.035156 -66.128906 73.828125 -69.390625 C 69.628906 -72.648438 64.390625 -74.28125 58.109375 -74.28125 C 52.179688 -74.28125 47.054688 -72.648438 42.734375 -69.390625 C 38.410156 -66.128906 35.476562 -61.65625 33.9375 -55.96875 Z M 33.9375 -55.96875 "/></g></g></g></svg>